<svg viewBox="0 0 1600 900" xmlns="http://www.w3.org/2000/svg">
  <defs>
    <linearGradient id="fade" x1="0" x2="0" y1="0" y2="1">
      <stop offset="0%%" stop-color="#FFFFFF" stop-opacity="0.20"/>
      <stop offset="100%%" stop-color="#FFFFFF" stop-opacity="0.05"/>
    </linearGradient>
  </defs>
  <g fill="none" stroke="url(#fade)" stroke-width="1.2">
    <path d="M -200 20 L -200 6.01 L -165 6.44 L -130 7.93 L -95 10.36 L -60 13.54 L -25 17.22 L 10 21.12 L 45 24.93 L 80 28.36 L 115 31.14 L 150 33.05 L 185 33.94 L 220 33.75 L 255 32.49 L 290 30.25 L 325 27.22 L 360 23.62 L 395 19.74 L 430 15.88 L 465 12.35 L 500 9.40 L 535 7.29 L 570 6.16 L 605 6.11 L 640 7.15 L 675 9.18 L 710 12.06 L 745 15.55 L 780 19.40 L 815 23.28 L 850 26.92 L 885 30.01 L 920 32.33 L 955 33.68 L 990 33.97 L 1025 33.17 L 1060 31.35 L 1095 28.64 L 1130 25.25 L 1165 21.46 L 1200 17.56 L 1235 13.84 L 1270 10.61 L 1305 8.11 L 1340 6.53 L 1375 6.00 L 1410 6.56 L 1445 8.17 L 1480 10.70 L 1515 13.96 L 1550 17.68 L 1585 21.59 L 1620 25.37 L 1655 28.73 L 1690 31.42 L 1725 33.21 L 1760 33.98 L 1795 33.65"/>
    <path d="M -200 48 L -200 35.22 L -165 37.30 L -130 40.21 L -95 43.73 L -60 47.58 L -25 51.46 L 10 55.08 L 45 58.14 L 80 60.41 L 115 61.72 L 150 61.96 L 185 61.11 L 220 59.24 L 255 56.49 L 290 53.08 L 325 49.28 L 360 45.38 L 395 41.68 L 430 38.47 L 465 36.01 L 500 34.48 L 535 34.00 L 570 34.62 L 605 36.27 L 640 38.84 L 675 42.12 L 710 45.86 L 745 49.77 L 780 53.54 L 815 56.88 L 850 59.52 L 885 61.27 L 920 61.99 L 955 61.61 L 990 60.18 L 1025 57.79 L 1060 54.65 L 1095 50.98 L 1130 47.09 L 1165 43.26 L 1200 39.81 L 1235 36.99 L 1270 35.03 L 1305 34.08 L 1340 34.21 L 1375 35.42 L 1410 37.61 L 1445 40.61 L 1480 44.18 L 1515 48.05 L 1550 51.92 L 1585 55.48 L 1620 58.46 L 1655 60.62 L 1690 61.80 L 1725 61.91 L 1760 60.93 L 1795 58.95"/>
    <path d="M -200 76 L -200 66.98 L -165 70.29 L -130 74.05 L -95 77.95 L -60 81.71 L -25 85.02 L 10 87.63 L 45 89.33 L 80 89.99 L 115 89.57 L 150 88.08 L 185 85.66 L 220 82.48 L 255 78.80 L 290 74.90 L 325 71.09 L 360 67.66 L 395 64.88 L 430 62.96 L 465 62.06 L 500 62.25 L 535 63.50 L 570 65.73 L 605 68.76 L 640 72.36 L 675 76.24 L 710 80.09 L 745 83.63 L 780 86.58 L 815 88.70 L 850 89.83 L 885 89.89 L 920 88.86 L 955 86.83 L 990 83.96 L 1025 80.47 L 1060 76.63 L 1095 72.74 L 1130 69.10 L 1165 66.00 L 1200 63.68 L 1235 62.32 L 1270 62.03 L 1305 62.82 L 1340 64.64 L 1375 67.35 L 1410 70.72 L 1445 74.51 L 1480 78.42 L 1515 82.14 L 1550 85.37 L 1585 87.88 L 1620 89.47 L 1655 90.00 L 1690 89.44 L 1725 87.84 L 1760 85.31 L 1795 82.06"/>
    <path d="M -200 104 L -200 100.54 L -165 104.42 L -130 108.27 L -95 111.79 L -60 114.70 L -25 116.78 L 10 117.86 L 45 117.86 L 80 116.79 L 115 114.71 L 150 111.81 L 185 108.29 L 220 104.44 L 255 100.56 L 290 96.94 L 325 93.88 L 360 91.60 L 395 90.29 L 430 90.04 L 465 90.89 L 500 92.75 L 535 95.49 L 570 98.90 L 605 102.70 L 640 106.60 L 675 110.30 L 710 113.51 L 745 115.98 L 780 117.52 L 815 118.00 L 850 117.39 L 885 115.74 L 920 113.18 L 955 109.90 L 990 106.16 L 1025 102.25 L 1060 98.48 L 1095 95.14 L 1130 92.49 L 1165 90.74 L 1200 90.01 L 1235 90.38 L 1270 91.81 L 1305 94.19 L 1340 97.33 L 1375 100.99 L 1410 104.89 L 1445 108.72 L 1480 112.18 L 1515 115.00 L 1550 116.96 L 1585 117.92 L 1620 117.79 L 1655 116.59 L 1690 114.41 L 1725 111.41 L 1760 107.84 L 1795 103.97"/>
    <path d="M -200 132 L -200 134.78 L -165 138.46 L -130 141.64 L -95 144.07 L -60 145.56 L -25 145.99 L 10 145.34 L 45 143.64 L 80 141.04 L 115 137.73 L 150 133.98 L 185 130.07 L 220 126.31 L 255 123.00 L 290 120.39 L 325 118.68 L 360 118.01 L 395 118.43 L 430 119.90 L 465 122.32 L 500 125.50 L 535 129.17 L 570 133.07 L 605 136.89 L 640 140.32 L 675 143.11 L 710 145.03 L 745 145.94 L 780 145.76 L 815 144.51 L 850 142.28 L 885 139.26 L 920 135.66 L 955 131.79 L 990 127.93 L 1025 124.38 L 1060 121.43 L 1095 119.31 L 1130 118.17 L 1165 118.11 L 1200 119.13 L 1235 121.15 L 1270 124.02 L 1305 127.51 L 1340 131.35 L 1375 135.24 L 1410 138.88 L 1445 141.98 L 1480 144.31 L 1515 145.67 L 1550 145.97 L 1585 145.19 L 1620 143.37 L 1655 140.67 L 1690 137.30 L 1725 133.51 L 1760 129.60 L 1795 125.88"/>
    <path d="M -200 160 L -200 168.47 L -165 171.22 L -130 173.10 L -95 173.95 L -60 173.72 L -25 172.42 L 10 170.16 L 45 167.10 L 80 163.49 L 115 159.60 L 150 155.75 L 185 152.23 L 220 149.31 L 255 147.23 L 290 146.14 L 325 146.13 L 360 147.20 L 395 149.27 L 430 152.17 L 465 155.69 L 500 159.54 L 535 163.42 L 570 167.04 L 605 170.11 L 640 172.39 L 675 173.71 L 710 173.96 L 745 173.12 L 780 171.26 L 815 168.53 L 850 165.12 L 885 161.32 L 920 157.42 L 955 153.72 L 990 150.51 L 1025 148.03 L 1060 146.49 L 1095 146.00 L 1130 146.60 L 1165 148.25 L 1200 150.81 L 1235 154.08 L 1270 157.82 L 1305 161.73 L 1340 165.50 L 1375 168.84 L 1410 171.50 L 1445 173.26 L 1480 173.98 L 1515 173.62 L 1550 172.20 L 1585 169.83 L 1620 166.69 L 1655 163.03 L 1690 159.13 L 1725 155.30 L 1760 151.84 L 1795 149.02"/>
    <path d="M -200 188 L -200 200.48 L -165 201.75 L -130 201.94 L -95 201.06 L -60 199.15 L -25 196.38 L 10 192.95 L 45 189.14 L 80 185.24 L 115 181.55 L 150 178.37 L 185 175.94 L 220 174.44 L 255 174.01 L 290 174.66 L 325 176.35 L 360 178.95 L 395 182.25 L 430 186.00 L 465 189.91 L 500 193.67 L 535 196.98 L 570 199.60 L 605 201.32 L 640 201.99 L 675 201.58 L 710 200.11 L 745 197.69 L 780 194.52 L 815 190.85 L 850 186.95 L 885 183.13 L 920 179.69 L 955 176.90 L 990 174.98 L 1025 174.06 L 1060 174.24 L 1095 175.48 L 1130 177.70 L 1165 180.73 L 1200 184.31 L 1235 188.19 L 1270 192.05 L 1305 195.60 L 1340 198.55 L 1375 200.68 L 1410 201.83 L 1445 201.89 L 1480 200.88 L 1515 198.86 L 1550 196.00 L 1585 192.51 L 1620 188.67 L 1655 184.78 L 1690 181.14 L 1725 178.04 L 1760 175.71 L 1795 174.33"/>
    <path d="M -200 216 L -200 230.00 L -165 229.53 L -130 228.01 L -95 225.56 L -60 222.36 L -25 218.67 L 10 214.76 L 45 210.96 L 80 207.55 L 115 204.79 L 150 202.91 L 185 202.05 L 220 202.27 L 255 203.57 L 290 205.83 L 325 208.88 L 360 212.49 L 395 216.38 L 430 220.23 L 465 223.75 L 500 226.67 L 535 228.76 L 570 229.86 L 605 229.87 L 640 228.81 L 675 226.74 L 710 223.84 L 745 220.33 L 780 216.49 L 815 212.60 L 850 208.98 L 885 205.91 L 920 203.62 L 955 202.29 L 990 202.04 L 1025 202.87 L 1060 204.72 L 1095 207.46 L 1130 210.85 L 1165 214.65 L 1200 218.56 L 1235 222.26 L 1270 225.48 L 1305 227.96 L 1340 229.50 L 1375 230.00 L 1410 229.40 L 1445 227.77 L 1480 225.21 L 1515 221.94 L 1550 218.20 L 1585 214.30 L 1620 210.52 L 1655 207.17 L 1690 204.51 L 1725 202.75 L 1760 202.02 L 1795 202.37"/>
    <path d="M -200 244 L -200 256.73 L -165 254.62 L -130 251.69 L -95 248.16 L -60 244.30 L -25 240.42 L 10 236.82 L 45 233.78 L 80 231.53 L 115 230.26 L 150 230.05 L 185 230.94 L 220 232.83 L 255 235.60 L 290 239.03 L 325 242.84 L 360 246.74 L 395 250.43 L 430 253.61 L 465 256.05 L 500 257.55 L 535 258.00 L 570 257.35 L 605 255.66 L 640 253.07 L 675 249.77 L 710 246.02 L 745 242.11 L 780 238.35 L 815 235.03 L 850 232.41 L 885 230.69 L 920 230.01 L 955 230.42 L 990 231.88 L 1025 234.29 L 1060 237.46 L 1095 241.13 L 1130 245.03 L 1165 248.85 L 1200 252.29 L 1235 255.08 L 1270 257.02 L 1305 257.93 L 1340 257.77 L 1375 256.53 L 1410 254.31 L 1445 251.29 L 1480 247.71 L 1515 243.83 L 1550 239.97 L 1585 236.42 L 1620 233.46 L 1655 231.33 L 1690 230.18 L 1725 230.10 L 1760 231.11 L 1795 233.12"/>
    <path d="M -200 272 L -200 280.93 L -165 277.60 L -130 273.84 L -95 269.93 L -60 266.18 L -25 262.89 L 10 260.31 L 45 258.64 L 80 258.00 L 115 258.46 L 150 259.97 L 185 262.42 L 220 265.62 L 255 269.31 L 290 273.21 L 325 277.02 L 360 280.44 L 395 283.20 L 430 285.08 L 465 285.95 L 500 285.73 L 535 284.44 L 570 282.19 L 605 279.14 L 640 275.53 L 675 271.65 L 710 267.79 L 745 264.27 L 780 261.34 L 815 259.25 L 850 258.15 L 885 258.13 L 920 259.19 L 955 261.24 L 990 264.14 L 1025 267.64 L 1060 271.49 L 1095 275.38 L 1130 279.00 L 1165 282.08 L 1200 284.37 L 1235 285.70 L 1270 285.96 L 1305 285.14 L 1340 283.29 L 1375 280.56 L 1410 277.17 L 1445 273.37 L 1480 269.47 L 1515 265.76 L 1550 262.54 L 1585 260.06 L 1620 258.50 L 1655 258.00 L 1690 258.59 L 1725 260.22 L 1760 262.77 L 1795 266.04"/>
    <path d="M -200 300 L -200 303.35 L -165 299.46 L -130 295.62 L -95 292.11 L -60 289.22 L -25 287.17 L 10 286.12 L 45 286.15 L 80 287.26 L 115 289.36 L 150 292.29 L 185 295.82 L 220 299.68 L 255 303.56 L 290 307.16 L 325 310.21 L 360 312.46 L 395 313.74 L 430 313.95 L 465 313.07 L 500 311.18 L 535 308.41 L 570 304.99 L 605 301.19 L 640 297.28 L 675 293.59 L 710 290.40 L 745 287.96 L 780 286.45 L 815 286.00 L 850 286.64 L 885 288.32 L 920 290.91 L 955 294.21 L 990 297.96 L 1025 301.87 L 1060 305.63 L 1095 308.95 L 1130 311.58 L 1165 313.30 L 1200 313.99 L 1235 313.59 L 1270 312.13 L 1305 309.73 L 1340 306.56 L 1375 302.89 L 1410 298.99 L 1445 295.17 L 1480 291.73 L 1515 288.93 L 1550 286.99 L 1585 286.07 L 1620 286.23 L 1655 287.46 L 1690 289.67 L 1725 292.69 L 1760 296.27 L 1795 300.15"/>
    <path d="M -200 328 L -200 325.10 L -165 321.43 L -130 318.27 L -95 315.87 L -60 314.41 L -25 314.01 L 10 314.70 L 45 316.43 L 80 319.05 L 115 322.38 L 150 326.14 L 185 330.05 L 220 333.80 L 255 337.09 L 290 339.68 L 325 341.36 L 360 342.00 L 395 341.54 L 430 340.04 L 465 337.59 L 500 334.40 L 535 330.71 L 570 326.81 L 605 323.00 L 640 319.58 L 675 316.82 L 710 314.93 L 745 314.05 L 780 314.26 L 815 315.55 L 850 317.80 L 885 320.85 L 920 324.45 L 955 328.33 L 990 332.19 L 1025 335.71 L 1060 338.64 L 1095 340.74 L 1130 341.85 L 1165 341.88 L 1200 340.82 L 1235 338.77 L 1270 335.88 L 1305 332.38 L 1340 328.53 L 1375 324.64 L 1410 321.02 L 1445 317.94 L 1480 315.64 L 1515 314.30 L 1550 314.04 L 1585 314.85 L 1620 316.70 L 1655 319.42 L 1690 322.81 L 1725 326.61 L 1760 330.51 L 1795 334.22"/>
    <path d="M -200 356 L -200 347.43 L -165 344.71 L -130 342.86 L -95 342.04 L -60 342.30 L -25 343.63 L 10 345.93 L 45 349.01 L 80 352.63 L 115 356.52 L 150 360.36 L 185 363.87 L 220 366.76 L 255 368.82 L 290 369.87 L 325 369.85 L 360 368.75 L 395 366.65 L 430 363.73 L 465 360.20 L 500 356.35 L 535 352.47 L 570 348.86 L 605 345.81 L 640 343.55 L 675 342.27 L 710 342.05 L 745 342.92 L 780 344.81 L 815 347.57 L 850 350.98 L 885 354.79 L 920 358.69 L 955 362.39 L 990 365.58 L 1025 368.03 L 1060 369.54 L 1095 370.00 L 1130 369.36 L 1165 367.69 L 1200 365.10 L 1235 361.81 L 1270 358.06 L 1305 354.16 L 1340 350.39 L 1375 347.07 L 1410 344.44 L 1445 342.71 L 1480 342.01 L 1515 342.41 L 1550 343.86 L 1585 346.26 L 1620 349.42 L 1655 353.09 L 1690 356.99 L 1725 360.81 L 1760 364.25 L 1795 367.06"/>
    <path d="M -200 384 L -200 371.47 L -165 370.23 L -130 370.07 L -95 370.99 L -60 372.92 L -25 375.72 L 10 379.16 L 45 382.98 L 80 386.87 L 115 390.55 L 150 393.71 L 185 396.12 L 220 397.59 L 255 397.99 L 290 397.31 L 325 395.59 L 360 392.96 L 395 389.64 L 430 385.88 L 465 381.97 L 500 378.22 L 535 374.93 L 570 372.33 L 605 370.65 L 640 370.00 L 675 370.45 L 710 371.95 L 745 374.39 L 780 377.58 L 815 381.27 L 850 385.17 L 885 388.98 L 920 392.40 L 955 395.17 L 990 397.07 L 1025 397.95 L 1060 397.74 L 1095 396.46 L 1130 394.22 L 1165 391.17 L 1200 387.57 L 1235 383.69 L 1270 379.84 L 1305 376.30 L 1340 373.37 L 1375 371.27 L 1410 370.15 L 1445 370.12 L 1480 371.17 L 1515 373.21 L 1550 376.10 L 1585 379.60 L 1620 383.45 L 1655 387.33 L 1690 390.96 L 1725 394.05 L 1760 396.35 L 1795 397.69"/>
    <path d="M -200 412 L -200 398.00 L -165 398.50 L -130 400.05 L -95 402.53 L -60 405.74 L -25 409.45 L 10 413.35 L 45 417.15 L 80 420.55 L 115 423.28 L 150 425.13 L 185 425.96 L 220 425.70 L 255 424.38 L 290 422.09 L 325 419.01 L 360 415.39 L 395 411.51 L 430 407.66 L 465 404.15 L 500 401.25 L 535 399.19 L 570 398.13 L 605 398.15 L 640 399.24 L 675 401.33 L 710 404.25 L 745 407.78 L 780 411.63 L 815 415.51 L 850 419.12 L 885 422.17 L 920 424.44 L 955 425.73 L 990 425.95 L 1025 425.09 L 1060 423.21 L 1095 420.45 L 1130 417.04 L 1165 413.23 L 1200 409.33 L 1235 405.63 L 1270 402.44 L 1305 399.98 L 1340 398.47 L 1375 398.00 L 1410 398.63 L 1445 400.30 L 1480 402.88 L 1515 406.17 L 1550 409.91 L 1585 413.82 L 1620 417.59 L 1655 420.92 L 1690 423.55 L 1725 425.29 L 1760 425.99 L 1795 425.60"/>
    <path d="M -200 440 L -200 427.32 L -165 429.45 L -130 432.41 L -95 435.95 L -60 439.82 L -25 443.69 L 10 447.28 L 45 450.30 L 80 452.52 L 115 453.76 L 150 453.94 L 185 453.02 L 220 451.09 L 255 448.30 L 290 444.86 L 325 441.05 L 360 437.15 L 395 433.47 L 430 430.30 L 465 427.89 L 500 426.42 L 535 426.01 L 570 426.69 L 605 428.40 L 640 431.02 L 675 434.34 L 710 438.10 L 745 442.00 L 780 445.76 L 815 449.06 L 850 451.66 L 885 453.34 L 920 453.99 L 955 453.55 L 990 452.06 L 1025 449.62 L 1060 446.44 L 1095 442.75 L 1130 438.85 L 1165 435.04 L 1200 431.62 L 1235 428.84 L 1270 426.94 L 1305 426.06 L 1340 426.26 L 1375 427.53 L 1410 429.77 L 1445 432.81 L 1480 436.41 L 1515 440.29 L 1550 444.14 L 1585 447.68 L 1620 450.61 L 1655 452.72 L 1690 453.84 L 1725 453.88 L 1760 452.84 L 1795 450.80"/>
    <path d="M -200 468 L -200 459.16 L -165 462.51 L -130 466.28 L -95 470.19 L -60 473.92 L -25 477.20 L 10 479.76 L 45 481.40 L 80 482.00 L 115 481.51 L 150 479.96 L 185 477.49 L 220 474.28 L 255 470.57 L 290 466.67 L 325 462.87 L 360 459.47 L 395 456.73 L 430 454.88 L 465 454.04 L 500 454.29 L 535 455.61 L 570 457.90 L 605 460.97 L 640 464.59 L 675 468.47 L 710 472.32 L 745 475.83 L 780 478.73 L 815 480.80 L 850 481.87 L 885 481.86 L 920 480.77 L 955 478.68 L 990 475.77 L 1025 472.24 L 1060 468.39 L 1095 464.51 L 1130 460.90 L 1165 457.84 L 1200 455.57 L 1235 454.28 L 1270 454.05 L 1305 454.90 L 1340 456.78 L 1375 459.53 L 1410 462.94 L 1445 466.75 L 1480 470.65 L 1515 474.35 L 1550 477.55 L 1585 480.01 L 1620 481.53 L 1655 482.00 L 1690 481.38 L 1725 479.71 L 1760 477.14 L 1795 473.85"/>
    <path d="M -200 496 L -200 492.76 L -165 496.66 L -130 500.49 L -95 503.98 L -60 506.85 L -25 508.87 L 10 509.89 L 45 509.83 L 80 508.69 L 115 506.56 L 150 503.61 L 185 500.07 L 220 496.21 L 255 492.33 L 290 488.74 L 325 485.71 L 360 483.49 L 395 482.24 L 430 482.06 L 465 482.97 L 500 484.89 L 535 487.68 L 570 491.12 L 605 494.93 L 640 498.83 L 675 502.51 L 710 505.68 L 745 508.10 L 780 509.57 L 815 509.99 L 850 509.32 L 885 507.61 L 920 505.00 L 955 501.68 L 990 497.93 L 1025 494.02 L 1060 490.27 L 1095 486.96 L 1130 484.36 L 1165 482.66 L 1200 482.01 L 1235 482.44 L 1270 483.93 L 1305 486.36 L 1340 489.54 L 1375 493.22 L 1410 497.13 L 1445 500.94 L 1480 504.37 L 1515 507.14 L 1550 509.05 L 1585 509.94 L 1620 509.75 L 1655 508.48 L 1690 506.25 L 1725 503.21 L 1760 499.61 L 1795 495.74"/>
    <path d="M -200 524 L -200 527.01 L -165 530.67 L -130 533.81 L -95 536.19 L -60 537.62 L -25 537.99 L 10 537.26 L 45 535.51 L 80 532.86 L 115 529.51 L 150 525.74 L 185 521.84 L 220 518.10 L 255 514.82 L 290 512.26 L 325 510.61 L 360 510.00 L 395 510.49 L 430 512.02 L 465 514.49 L 500 517.70 L 535 521.41 L 570 525.31 L 605 529.11 L 640 532.51 L 675 535.25 L 710 537.12 L 745 537.96 L 780 537.71 L 815 536.40 L 850 534.12 L 885 531.05 L 920 527.44 L 955 523.55 L 990 519.70 L 1025 516.19 L 1060 513.28 L 1095 511.21 L 1130 510.13 L 1165 510.14 L 1200 511.22 L 1235 513.30 L 1270 516.22 L 1305 519.74 L 1340 523.59 L 1375 527.47 L 1410 531.08 L 1445 534.14 L 1480 536.42 L 1515 537.72 L 1550 537.96 L 1585 537.10 L 1620 535.23 L 1655 532.49 L 1690 529.08 L 1725 525.27 L 1760 521.37 L 1795 517.67"/>
    <path d="M -200 552 L -200 560.66 L -165 563.36 L -130 565.18 L -95 565.97 L -60 565.67 L -25 564.31 L 10 561.99 L 45 558.89 L 80 555.26 L 115 551.37 L 150 547.53 L 185 544.03 L 220 541.16 L 255 539.14 L 290 538.11 L 325 538.17 L 360 539.30 L 395 541.42 L 430 544.37 L 465 547.91 L 500 551.77 L 535 555.65 L 570 559.24 L 605 562.27 L 640 564.50 L 675 565.76 L 710 565.94 L 745 565.04 L 780 563.12 L 815 560.34 L 850 556.91 L 885 553.09 L 920 549.19 L 955 545.51 L 990 542.33 L 1025 539.91 L 1060 538.43 L 1095 538.01 L 1130 538.67 L 1165 540.38 L 1200 542.99 L 1235 546.30 L 1270 550.05 L 1305 553.96 L 1340 557.71 L 1375 561.02 L 1410 563.63 L 1445 565.33 L 1480 565.99 L 1515 565.57 L 1550 564.08 L 1585 561.66 L 1620 558.48 L 1655 554.80 L 1690 550.90 L 1725 547.08 L 1760 543.65 L 1795 540.87"/>
    <path d="M -200 580 L -200 592.58 L -165 593.79 L -130 593.92 L -95 592.97 L -60 591.01 L -25 588.19 L 10 584.73 L 45 580.91 L 80 577.01 L 115 573.35 L 150 570.20 L 185 567.82 L 220 566.39 L 255 566.01 L 290 566.73 L 325 568.48 L 360 571.13 L 395 574.47 L 430 578.24 L 465 582.14 L 500 585.88 L 535 589.16 L 570 591.73 L 605 593.39 L 640 594.00 L 675 593.52 L 710 591.99 L 745 589.52 L 780 586.31 L 815 582.62 L 850 578.71 L 885 574.91 L 920 571.50 L 955 568.76 L 990 566.89 L 1025 566.04 L 1060 566.28 L 1095 567.59 L 1130 569.86 L 1165 572.93 L 1200 576.54 L 1235 580.43 L 1270 584.28 L 1305 587.79 L 1340 590.70 L 1375 592.78 L 1410 593.86 L 1445 593.86 L 1480 592.79 L 1515 590.71 L 1550 587.80 L 1585 584.29 L 1620 580.44 L 1655 576.55 L 1690 572.94 L 1725 569.87 L 1760 567.59 L 1795 566.28"/>
    <path d="M -200 608 L -200 622.00 L -165 621.47 L -130 619.89 L -95 617.39 L -60 614.15 L -25 610.43 L 10 606.53 L 45 602.74 L 80 599.36 L 115 596.65 L 150 594.83 L 185 594.03 L 220 594.32 L 255 595.68 L 290 597.99 L 325 601.09 L 360 604.72 L 395 608.61 L 430 612.45 L 465 615.95 L 500 618.82 L 535 620.86 L 570 621.89 L 605 621.84 L 640 620.71 L 675 618.59 L 710 615.65 L 745 612.11 L 780 608.25 L 815 604.37 L 850 600.78 L 885 597.74 L 920 595.51 L 955 594.25 L 990 594.06 L 1025 594.95 L 1060 596.87 L 1095 599.64 L 1130 603.07 L 1165 606.89 L 1200 610.79 L 1235 614.47 L 1270 617.65 L 1305 620.08 L 1340 621.56 L 1375 621.99 L 1410 621.33 L 1445 619.64 L 1480 617.03 L 1515 613.72 L 1550 609.97 L 1585 606.06 L 1620 602.31 L 1655 598.99 L 1690 596.38 L 1725 594.68 L 1760 594.01 L 1795 594.43"/>
    <path d="M -200 636 L -200 648.63 L -165 646.47 L -130 643.49 L -95 639.93 L -60 636.07 L -25 632.20 L 10 628.62 L 45 625.62 L 80 623.43 L 115 622.22 L 150 622.08 L 185 623.02 L 220 624.98 L 255 627.79 L 290 631.25 L 325 635.07 L 360 638.97 L 395 642.63 L 430 645.78 L 465 648.17 L 500 649.61 L 535 649.99 L 570 649.28 L 605 647.53 L 640 644.89 L 675 641.55 L 710 637.79 L 745 633.88 L 780 630.14 L 815 626.85 L 850 624.28 L 885 622.62 L 920 622.00 L 955 622.48 L 990 624.00 L 1025 626.46 L 1060 629.67 L 1095 633.36 L 1130 637.26 L 1165 641.07 L 1200 644.48 L 1235 647.23 L 1270 649.10 L 1305 649.95 L 1340 649.72 L 1375 648.42 L 1410 646.15 L 1445 643.09 L 1480 639.48 L 1515 635.60 L 1550 631.74 L 1585 628.22 L 1620 625.31 L 1655 623.23 L 1690 622.14 L 1725 622.13 L 1760 623.21 L 1795 625.27"/>
    <path d="M -200 664 L -200 672.75 L -165 669.38 L -130 665.60 L -95 661.70 L -60 657.97 L -25 654.71 L 10 652.18 L 45 650.57 L 80 650.00 L 115 650.52 L 150 652.10 L 185 654.60 L 220 657.83 L 255 661.54 L 290 665.45 L 325 669.24 L 360 672.62 L 395 675.34 L 430 677.16 L 465 677.97 L 500 677.68 L 535 676.33 L 570 674.02 L 605 670.93 L 640 667.30 L 675 663.41 L 710 659.57 L 745 656.07 L 780 653.19 L 815 651.15 L 850 650.12 L 885 650.16 L 920 651.28 L 955 653.39 L 990 656.33 L 1025 659.87 L 1060 663.73 L 1095 667.61 L 1130 671.20 L 1165 674.24 L 1200 676.48 L 1235 677.75 L 1270 677.94 L 1305 677.05 L 1340 675.15 L 1375 672.37 L 1410 668.95 L 1445 665.13 L 1480 661.23 L 1515 657.55 L 1550 654.37 L 1585 651.93 L 1620 650.44 L 1655 650.01 L 1690 650.66 L 1725 652.35 L 1760 654.95 L 1795 658.26"/>
    <path d="M -200 692 L -200 695.12 L -165 691.23 L -130 687.39 L -95 683.92 L -60 681.08 L -25 679.08 L 10 678.09 L 45 678.19 L 80 679.36 L 115 681.52 L 150 684.49 L 185 688.05 L 220 691.91 L 255 695.78 L 290 699.36 L 325 702.37 L 360 704.56 L 395 705.78 L 430 705.93 L 465 704.99 L 500 703.04 L 535 700.22 L 570 696.77 L 605 692.95 L 640 689.05 L 675 685.39 L 710 682.23 L 745 679.84 L 780 678.40 L 815 678.01 L 850 678.72 L 885 680.46 L 920 683.09 L 955 686.43 L 990 690.19 L 1025 694.10 L 1060 697.84 L 1095 701.13 L 1130 703.71 L 1165 705.37 L 1200 706.00 L 1235 705.53 L 1270 704.01 L 1305 701.55 L 1340 698.35 L 1375 694.66 L 1410 690.76 L 1445 686.95 L 1480 683.54 L 1515 680.79 L 1550 678.91 L 1585 678.05 L 1620 678.27 L 1655 679.57 L 1690 681.83 L 1725 684.89 L 1760 688.50 L 1795 692.38"/>
    <path d="M -200 720 L -200 716.87 L -165 713.22 L -130 710.10 L -95 707.75 L -60 706.35 L -25 706.02 L 10 706.78 L 45 708.56 L 80 711.24 L 115 714.59 L 150 718.37 L 185 722.28 L 220 726.01 L 255 729.27 L 290 731.81 L 325 733.43 L 360 734.00 L 395 733.48 L 430 731.91 L 465 729.42 L 500 726.19 L 535 722.48 L 570 718.57 L 605 714.78 L 640 711.39 L 675 708.68 L 710 706.84 L 745 706.03 L 780 706.31 L 815 707.66 L 850 709.96 L 885 713.05 L 920 716.68 L 955 720.57 L 990 724.41 L 1025 727.91 L 1060 730.79 L 1095 732.84 L 1130 733.88 L 1165 733.84 L 1200 732.73 L 1235 730.62 L 1270 727.69 L 1305 724.15 L 1340 720.30 L 1375 716.42 L 1410 712.82 L 1445 709.77 L 1480 707.53 L 1515 706.26 L 1550 706.05 L 1585 706.94 L 1620 708.84 L 1655 711.61 L 1690 715.03 L 1725 718.84 L 1760 722.74 L 1795 726.43"/>
    <path d="M -200 748 L -200 739.25 L -165 736.57 L -130 734.78 L -95 734.02 L -60 734.35 L -25 735.74 L 10 738.09 L 45 741.21 L 80 744.86 L 115 748.75 L 150 752.58 L 185 756.06 L 220 758.91 L 255 760.91 L 290 761.90 L 325 761.81 L 360 760.65 L 395 758.50 L 430 755.53 L 465 751.98 L 500 748.11 L 535 744.24 L 570 740.66 L 605 737.65 L 640 735.45 L 675 734.22 L 710 734.07 L 745 735.01 L 780 736.95 L 815 739.76 L 850 743.21 L 885 747.03 L 920 750.92 L 955 754.59 L 990 757.75 L 1025 760.15 L 1060 761.60 L 1095 761.99 L 1130 761.29 L 1165 759.56 L 1200 756.92 L 1235 753.60 L 1270 749.83 L 1305 745.92 L 1340 742.18 L 1375 738.89 L 1410 736.30 L 1445 734.63 L 1480 734.00 L 1515 734.46 L 1550 735.98 L 1585 738.43 L 1620 741.63 L 1655 745.32 L 1690 749.22 L 1725 753.03 L 1760 756.44 L 1795 759.20"/>
    <path d="M -200 776 L -200 763.37 L -165 762.19 L -130 762.09 L -95 763.07 L -60 765.07 L -25 767.91 L 10 771.38 L 45 775.21 L 80 779.10 L 115 782.76 L 150 785.88 L 185 788.24 L 220 789.64 L 255 789.98 L 290 789.23 L 325 787.45 L 360 784.78 L 395 781.43 L 430 777.65 L 465 773.74 L 500 770.01 L 535 766.75 L 570 764.20 L 605 762.58 L 640 762.00 L 675 762.51 L 710 764.07 L 745 766.56 L 780 769.79 L 815 773.50 L 850 777.40 L 885 781.20 L 920 784.59 L 955 787.31 L 990 789.15 L 1025 789.97 L 1060 789.69 L 1095 788.35 L 1130 786.05 L 1165 782.97 L 1200 779.34 L 1235 775.46 L 1270 771.61 L 1305 768.11 L 1340 765.22 L 1375 763.17 L 1410 762.12 L 1445 762.15 L 1480 763.26 L 1515 765.37 L 1550 768.30 L 1585 771.83 L 1620 775.68 L 1655 779.56 L 1690 783.16 L 1725 786.21 L 1760 788.46 L 1795 789.74"/>
  </g>
</svg>
