<?xml version="1.0" encoding="UTF-8"?>
<svg id="Layer_2" xmlns="http://www.w3.org/2000/svg" version="1.1" viewBox="0 0 266 78.6">
  <!-- Generator: Adobe Illustrator 29.7.1, SVG Export Plug-In . SVG Version: 2.1.1 Build 8)  -->
  <defs>
    <style>
      .st0 {
        fill: #fff;
      }
    </style>
  </defs>
  <g id="Layer_1-2">
    <g>
      <path class="st0" d="M62.3,66.8c0-3.9-3.7-4.4-6.2-4.4h-9.2v15.9h1.9v-7h6.2l5.1,7h2.4l-5.2-7.1c1.9,0,5-1.1,5-4.4h0ZM48.8,69.5v-5.4h6.8c2.8,0,4.8.4,4.8,2.7s-2.1,2.7-4.8,2.7h-6.8Z"/>
      <path class="st0" d="M252.2,18.8h-26.2c-4.8,0-7.2-2.1-7.2-5.6v-2.3c0-3.3,2.2-5.6,7.2-5.6h37.6V0h-37.6c-10,0-13.8,4.4-13.8,10.9v2.2c0,6.5,3.8,10.9,13.8,10.9h26.2c4.8,0,7.2,2.3,7.2,5.6v5c0,3.2-2.5,5.7-7.2,5.7h-38.6v5.2h38.6c10,0,13.8-4.4,13.8-10.8v-4.9c0-6.4-3.8-10.9-13.8-10.9h0Z"/>
      <polygon class="st0" points="30.1 0 0 45.4 7.3 45.4 32.5 6.8 57.3 45.4 64.8 45.4 34.9 0 30.1 0"/>
      <polygon class="st0" points="27.4 70.8 37.7 70.8 37.7 69.1 27.4 69.1 27.4 64 39.7 64 39.7 62.3 25.5 62.3 25.5 78.2 39.9 78.2 39.9 76.5 27.4 76.5 27.4 70.8"/>
      <path class="st0" d="M252.1,66.4c0-2,2.2-2.8,5.4-2.8s5.9,2,6.5,2.8l1.4-1.1c-1.1-1.5-3.7-3.3-7.9-3.3s-7.4,1.4-7.4,4.8c0,6.4,13.8,2.2,13.8,7s-3.3,3.2-5.8,3.2c-4.8,0-6.3-2-7.2-3.2l-1.5,1.3c1.4,1.5,3.3,3.7,8.5,3.7s8-2.2,8-4.9c0-7.1-13.9-2.5-13.9-7.3h0Z"/>
      <polygon class="st0" points="193.7 40.2 154.8 40.2 154.8 24 191.8 24 191.8 18.8 154.8 18.8 154.8 5.2 193.7 5.2 193.7 0 148.2 0 148.2 45.4 193.7 45.4 193.7 40.2"/>
      <path class="st0" d="M8.2,62.3L0,78.2h2.1l2.1-4.1h10.2l2.1,4.1h2.2l-8.1-15.9s-2.4,0-2.4,0ZM5.1,72.4l4.3-8.5,4.3,8.5H5.1Z"/>
      <path class="st0" d="M126.4,40.2h-35.7c-5.1,0-7.3-2.2-7.3-5.7V11c0-3.6,2.2-5.7,7.3-5.7h35.7V0h-35.7c-10.1,0-13.9,4.4-13.9,11v23.5c0,6.5,3.9,11,13.9,11h35.7v-5.2Z"/>
      <polygon class="st0" points="156.1 75.4 144.3 62.3 141.6 62.3 141.6 78.2 143.4 78.2 143.4 64 156.1 78.2 158.1 78.2 158.1 62.3 156.1 62.3 156.1 75.4"/>
      <rect class="st0" x="216.6" y="62.3" width="1.9" height="15.9"/>
      <path class="st0" d="M78.9,61.9c-5.4,0-9.3,3.2-9.3,8.4s4.7,8.2,9.3,8.2,9.3-2.6,9.3-8.2-3.9-8.4-9.3-8.4ZM78.9,76.9c-3.9,0-7.3-2.1-7.3-6.9s2.7-6.5,7.3-6.5,7.3,2.9,7.3,6.5-3.5,6.9-7.3,6.9Z"/>
      <path class="st0" d="M173.1,62.3l-8.2,15.9h2.1l2.1-4.1h10.2l2.1,4.1h2.2l-8.1-15.9h-2.4ZM170,72.4l4.3-8.5,4.3,8.5h-8.5,0Z"/>
      <polygon class="st0" points="125.4 70.1 118.8 62.3 116.3 62.3 124.5 71.8 124.5 78.2 126.4 78.2 126.4 71.8 134.6 62.3 132.1 62.3 125.4 70.1"/>
      <polygon class="st0" points="199.2 75.7 193.4 62.3 190.4 62.3 190.4 78.2 192.2 78.2 192.2 64 192.2 64 198.4 78.2 200.1 78.2 206.3 64 206.3 64 206.3 78.2 208.1 78.2 208.1 62.3 205.1 62.3 199.2 75.7"/>
      <path class="st0" d="M235.2,76.9c-4.8,0-7.3-2.7-7.3-6.4s2.6-7,7.1-7,5.5,1.1,6.6,3.7l1.7-.8c-1.4-3.2-4.9-4.5-8.3-4.5-5.4,0-9.1,2.9-9.1,8.4s2.9,8.3,9.1,8.3,6.8-1.3,8.5-4.6l-1.7-.8c-1.3,2.4-3.5,3.7-6.6,3.7h0Z"/>
      <path class="st0" d="M103.5,62.3h-7.8v15.9h7.2c4.2,0,9.1-1.6,9.1-8.1s-3.6-7.8-8.5-7.8h0ZM103.2,76.5h-5.6v-12.5h5.9c3.2,0,6.5,1.4,6.5,6s-5.3,6.4-6.8,6.4h0Z"/>
    </g>
  </g>
</svg>