<svg viewBox="0 0 1600 900" xmlns="http://www.w3.org/2000/svg">
  <defs>
    <linearGradient id="fade" x1="0" x2="0" y1="0" y2="1">
      <stop offset="0%%" stop-color="#FFFFFF" stop-opacity="0.20"/>
      <stop offset="100%%" stop-color="#FFFFFF" stop-opacity="0.05"/>
    </linearGradient>
  </defs>
  <g fill="none" stroke="url(#fade)" stroke-width="1.2">
    <path d="M -200 50 L -200 31.36 L -160 33.62 L -120 36.81 L -80 40.76 L -40 45.25 L 0 50.00 L 40 54.75 L 80 59.24 L 120 63.19 L 160 66.38 L 200 68.64 L 240 69.83 L 280 69.88 L 320 68.79 L 360 66.63 L 400 63.51 L 440 59.62 L 480 55.17 L 520 50.43 L 560 45.67 L 600 41.15 L 640 37.14 L 680 33.87 L 720 31.52 L 760 30.23 L 800 30.08 L 840 31.06 L 880 33.14 L 920 36.18 L 960 40.01 L 1000 44.41 L 1040 49.14 L 1080 53.91 L 1120 58.46 L 1160 62.53 L 1200 65.87 L 1240 68.31 L 1280 69.70 L 1320 69.96 L 1360 69.07 L 1400 67.09 L 1440 64.13 L 1480 60.36 L 1520 56.00 L 1560 51.29 L 1600 46.51 L 1640 41.93 L 1680 37.81 L 1720 34.39 L 1760 31.87"/>
    <path d="M -200 95 L -200 79.97 L -160 83.54 L -120 87.77 L -80 92.41 L -40 97.20 L 0 101.86 L 40 106.13 L 80 109.76 L 120 112.54 L 160 114.32 L 200 115.00 L 240 114.52 L 280 112.93 L 320 110.31 L 360 106.81 L 400 102.63 L 440 98.02 L 480 93.23 L 520 88.55 L 560 84.23 L 600 80.54 L 640 77.67 L 680 75.79 L 720 75.02 L 760 75.39 L 800 76.88 L 840 79.42 L 880 82.85 L 920 86.97 L 960 91.55 L 1000 96.34 L 1040 101.04 L 1080 105.40 L 1120 109.16 L 1160 112.11 L 1200 114.08 L 1240 114.96 L 1280 114.69 L 1320 113.29 L 1360 110.85 L 1400 107.49 L 1440 103.42 L 1480 98.87 L 1520 94.10 L 1560 89.37 L 1600 84.97 L 1640 81.15 L 1680 78.11 L 1720 76.05 L 1760 75.07"/>
    <path d="M -200 140 L -200 130.41 L -160 134.86 L -120 139.60 L -80 144.36 L -40 148.88 L 0 152.88 L 40 156.15 L 80 158.49 L 120 159.77 L 160 159.92 L 200 158.93 L 240 156.85 L 280 153.80 L 320 149.97 L 360 145.56 L 400 140.83 L 440 136.06 L 480 131.51 L 520 127.45 L 560 124.11 L 600 121.68 L 640 120.30 L 680 120.05 L 720 120.94 L 760 122.92 L 800 125.89 L 840 129.66 L 880 134.03 L 920 138.74 L 960 143.52 L 1000 148.10 L 1040 152.21 L 1080 155.63 L 1120 158.15 L 1160 159.62 L 1200 159.98 L 1240 159.19 L 1280 157.30 L 1320 154.41 L 1360 150.70 L 1400 146.38 L 1440 141.69 L 1480 136.91 L 1520 132.30 L 1560 128.13 L 1600 124.65 L 1640 122.04 L 1680 120.46 L 1720 120.01 L 1760 120.70"/>
    <path d="M -200 185 L -200 182.01 L -160 186.80 L -120 191.48 L -80 195.79 L -40 199.49 L 0 202.35 L 40 204.22 L 80 204.98 L 120 204.60 L 160 203.10 L 200 200.56 L 240 197.13 L 280 193.00 L 320 188.42 L 360 183.63 L 400 178.93 L 440 174.57 L 480 170.82 L 520 167.87 L 560 165.91 L 600 165.04 L 640 165.31 L 680 166.72 L 720 169.17 L 760 172.53 L 800 176.60 L 840 181.16 L 880 185.94 L 920 190.66 L 960 195.06 L 1000 198.88 L 1040 201.90 L 1080 203.96 L 1120 204.93 L 1160 204.76 L 1200 203.45 L 1240 201.09 L 1280 197.80 L 1320 193.79 L 1360 189.26 L 1400 184.50 L 1440 179.76 L 1480 175.32 L 1520 171.44 L 1560 168.33 L 1600 166.18 L 1640 165.11 L 1680 165.18 L 1720 166.39 L 1760 168.66"/>
    <path d="M -200 230 L -200 233.97 L -160 238.52 L -120 242.58 L -80 245.91 L -40 248.34 L 0 249.71 L 40 249.95 L 80 249.05 L 120 247.06 L 160 244.09 L 200 240.31 L 240 235.94 L 280 231.23 L 320 226.45 L 360 221.87 L 400 217.76 L 440 214.35 L 480 211.84 L 520 210.37 L 560 210.02 L 600 210.82 L 640 212.72 L 680 215.61 L 720 219.32 L 760 223.65 L 800 228.34 L 840 233.12 L 880 237.73 L 920 241.89 L 960 245.37 L 1000 247.97 L 1040 249.54 L 1080 249.99 L 1120 249.30 L 1160 247.49 L 1200 244.69 L 1240 241.04 L 1280 236.76 L 1320 232.09 L 1360 227.30 L 1400 222.67 L 1440 218.46 L 1480 214.91 L 1520 212.22 L 1560 210.55 L 1600 210.00 L 1640 210.59 L 1680 212.30 L 1720 215.02 L 1760 218.60"/>
    <path d="M -200 275 L -200 285.45 L -160 289.21 L -120 292.15 L -80 294.10 L -40 294.96 L 0 294.68 L 40 293.27 L 80 290.81 L 120 287.44 L 160 283.37 L 200 278.81 L 240 274.03 L 280 269.31 L 320 264.92 L 360 261.10 L 400 258.08 L 440 256.03 L 480 255.07 L 520 255.25 L 560 256.56 L 600 258.93 L 640 262.22 L 680 266.24 L 720 270.77 L 760 275.54 L 800 280.27 L 840 284.71 L 880 288.59 L 920 291.69 L 960 293.83 L 1000 294.89 L 1040 294.82 L 1080 293.60 L 1120 291.32 L 1160 288.11 L 1200 284.14 L 1240 279.65 L 1280 274.90 L 1320 270.14 L 1360 265.67 L 1400 261.73 L 1440 258.56 L 1480 256.32 L 1520 255.16 L 1560 255.13 L 1600 256.24 L 1640 258.43 L 1680 261.57 L 1720 265.48 L 1760 269.93"/>
    <path d="M -200 320 L -200 335.67 L -160 338.17 L -120 339.64 L -80 339.98 L -40 339.17 L 0 337.26 L 40 334.37 L 80 330.65 L 120 326.32 L 160 321.63 L 200 316.85 L 240 312.24 L 280 308.08 L 320 304.61 L 360 302.01 L 400 300.45 L 440 300.01 L 480 300.71 L 520 302.52 L 560 305.33 L 600 308.99 L 640 313.27 L 680 317.94 L 720 322.73 L 760 327.36 L 800 331.57 L 840 335.12 L 880 337.80 L 920 339.46 L 960 340.00 L 1000 339.40 L 1040 337.68 L 1080 334.96 L 1120 331.37 L 1160 327.13 L 1200 322.49 L 1240 317.70 L 1280 313.04 L 1320 308.79 L 1360 305.17 L 1400 302.41 L 1440 300.65 L 1480 300.00 L 1520 300.50 L 1560 302.12 L 1600 304.76 L 1640 308.28 L 1680 312.46 L 1720 317.08 L 1760 321.87"/>
    <path d="M -200 365 L -200 383.98 L -160 384.93 L -120 384.75 L -80 383.43 L -40 381.05 L 0 377.76 L 40 373.73 L 80 369.20 L 120 364.43 L 160 359.70 L 200 355.26 L 240 351.39 L 280 348.30 L 320 346.16 L 360 345.10 L 400 345.19 L 440 346.41 L 480 348.69 L 520 351.92 L 560 355.89 L 600 360.38 L 640 365.14 L 680 369.89 L 720 374.36 L 760 378.29 L 800 381.46 L 840 383.69 L 880 384.85 L 920 384.87 L 960 383.75 L 1000 381.55 L 1040 378.41 L 1080 374.50 L 1120 370.04 L 1160 365.30 L 1200 360.53 L 1240 356.03 L 1280 352.04 L 1320 348.79 L 1360 346.47 L 1400 345.21 L 1440 345.09 L 1480 346.11 L 1520 348.21 L 1560 351.27 L 1600 355.13 L 1640 359.54 L 1680 364.27 L 1720 369.04 L 1760 373.58"/>
    <path d="M -200 410 L -200 429.99 L -160 429.28 L -120 427.46 L -80 424.64 L -40 420.99 L 0 416.70 L 40 412.03 L 80 407.24 L 120 402.61 L 160 398.41 L 200 394.86 L 240 392.19 L 280 390.54 L 320 390.00 L 360 390.61 L 400 392.33 L 440 395.06 L 480 398.65 L 520 402.89 L 560 407.54 L 600 412.33 L 640 416.99 L 680 421.24 L 720 424.85 L 760 427.61 L 800 429.36 L 840 430.00 L 880 429.49 L 920 427.87 L 960 425.22 L 1000 421.70 L 1040 417.51 L 1080 412.89 L 1120 408.10 L 1160 403.42 L 1200 399.12 L 1240 395.44 L 1280 392.60 L 1320 390.75 L 1360 390.01 L 1400 390.42 L 1440 391.94 L 1480 394.50 L 1520 397.95 L 1560 402.09 L 1600 406.69 L 1640 411.47 L 1680 416.17 L 1720 420.52 L 1760 424.26"/>
    <path d="M -200 455 L -200 473.58 L -160 471.29 L -120 468.06 L -80 464.09 L -40 459.59 L 0 454.83 L 40 450.08 L 80 445.62 L 120 441.69 L 160 438.52 L 200 436.30 L 240 435.15 L 280 435.14 L 320 436.27 L 360 438.47 L 400 441.62 L 440 445.53 L 480 449.99 L 520 454.74 L 560 459.50 L 600 464.00 L 640 467.99 L 680 471.23 L 720 473.54 L 760 474.79 L 800 474.91 L 840 473.88 L 880 471.77 L 920 468.70 L 960 464.85 L 1000 460.43 L 1040 455.70 L 1080 450.92 L 1120 446.39 L 1160 442.34 L 1200 439.02 L 1240 436.62 L 1280 435.27 L 1320 435.06 L 1360 435.98 L 1400 438.00 L 1440 440.99 L 1480 444.78 L 1520 449.16 L 1560 453.87 L 1600 458.65 L 1640 463.22 L 1680 467.32 L 1720 470.71 L 1760 473.20"/>
    <path d="M -200 500 L -200 514.91 L -160 511.32 L -120 507.08 L -80 502.43 L -40 497.64 L 0 492.98 L 40 488.73 L 80 485.13 L 120 482.38 L 160 480.63 L 200 480.00 L 240 480.52 L 280 482.15 L 320 484.80 L 360 488.33 L 400 492.52 L 440 497.15 L 480 501.93 L 520 506.61 L 560 510.91 L 600 514.58 L 640 517.42 L 680 519.25 L 720 519.99 L 760 519.58 L 800 518.04 L 840 515.48 L 880 512.02 L 920 507.88 L 960 503.28 L 1000 498.50 L 1040 493.80 L 1080 489.46 L 1120 485.72 L 1160 482.80 L 1200 480.87 L 1240 480.03 L 1280 480.34 L 1320 481.77 L 1360 484.25 L 1400 487.64 L 1440 491.73 L 1480 496.29 L 1520 501.07 L 1560 505.79 L 1600 510.17 L 1640 513.97 L 1680 516.98 L 1720 519.00 L 1760 519.94"/>
    <path d="M -200 545 L -200 554.44 L -160 549.98 L -120 545.23 L -80 540.47 L -40 535.97 L 0 531.99 L 40 528.75 L 80 526.44 L 120 525.20 L 160 525.10 L 200 526.13 L 240 528.24 L 280 531.32 L 320 535.18 L 360 539.60 L 400 544.34 L 440 549.11 L 480 553.64 L 520 557.68 L 560 560.99 L 600 563.39 L 640 564.73 L 680 564.94 L 720 564.01 L 760 561.99 L 800 558.99 L 840 555.19 L 880 550.81 L 920 546.10 L 960 541.32 L 1000 536.75 L 1040 532.66 L 1080 529.27 L 1120 526.78 L 1160 525.34 L 1200 525.03 L 1240 525.86 L 1280 527.79 L 1320 530.70 L 1360 534.44 L 1400 538.78 L 1440 543.47 L 1480 548.26 L 1520 552.86 L 1560 557.00 L 1600 560.46 L 1640 563.03 L 1680 564.57 L 1720 564.99 L 1760 564.26"/>
    <path d="M -200 590 L -200 592.82 L -160 588.04 L -120 583.36 L -80 579.07 L -40 575.40 L 0 572.57 L 40 570.74 L 80 570.01 L 120 570.43 L 160 571.97 L 200 574.54 L 240 578.01 L 280 582.15 L 320 586.75 L 360 591.53 L 400 596.23 L 440 600.57 L 480 604.30 L 520 607.22 L 560 609.14 L 600 609.97 L 640 609.65 L 680 608.21 L 720 605.73 L 760 602.34 L 800 598.24 L 840 593.67 L 880 588.90 L 920 584.18 L 960 579.80 L 1000 576.00 L 1040 573.01 L 1080 570.99 L 1120 570.06 L 1160 570.27 L 1200 571.61 L 1240 574.01 L 1280 577.33 L 1320 581.37 L 1360 585.90 L 1400 590.67 L 1440 595.40 L 1480 599.83 L 1520 603.69 L 1560 606.76 L 1600 608.87 L 1640 609.91 L 1680 609.80 L 1720 608.55 L 1760 606.24"/>
    <path d="M -200 635 L -200 630.86 L -160 626.33 L -120 622.29 L -80 618.99 L -40 616.60 L 0 615.26 L 40 615.06 L 80 616.00 L 120 618.03 L 160 621.03 L 200 624.83 L 240 629.22 L 280 633.94 L 320 638.71 L 360 643.28 L 400 647.37 L 440 650.75 L 480 653.23 L 520 654.66 L 560 654.97 L 600 654.13 L 640 652.19 L 680 649.27 L 720 645.54 L 760 641.19 L 800 636.49 L 840 631.71 L 880 627.12 L 920 622.97 L 960 619.52 L 1000 616.95 L 1040 615.42 L 1080 615.01 L 1120 615.75 L 1160 617.59 L 1200 620.43 L 1240 624.10 L 1280 628.40 L 1320 633.08 L 1360 637.86 L 1400 642.49 L 1440 646.68 L 1480 650.20 L 1520 652.86 L 1560 654.49 L 1600 655.00 L 1640 654.36 L 1680 652.62 L 1720 649.87 L 1760 646.26"/>
    <path d="M -200 680 L -200 669.40 L -160 665.68 L -120 662.77 L -80 660.85 L -40 660.03 L 0 660.35 L 40 661.80 L 80 664.29 L 120 667.69 L 160 671.79 L 200 676.36 L 240 681.14 L 280 685.85 L 320 690.23 L 360 694.02 L 400 697.01 L 440 699.02 L 480 699.95 L 520 699.73 L 560 698.37 L 600 695.97 L 640 692.65 L 680 688.61 L 720 684.07 L 760 679.30 L 800 674.56 L 840 670.15 L 880 666.29 L 920 663.22 L 960 661.12 L 1000 660.09 L 1040 660.21 L 1080 661.46 L 1120 663.77 L 1160 667.02 L 1200 671.01 L 1240 675.51 L 1280 680.27 L 1320 685.02 L 1360 689.48 L 1400 693.39 L 1440 696.54 L 1480 698.74 L 1520 699.86 L 1560 699.85 L 1600 698.70 L 1640 696.47 L 1680 693.31 L 1720 689.38 L 1760 684.91"/>
    <path d="M -200 725 L -200 709.23 L -160 706.76 L -120 705.33 L -80 705.03 L -40 705.88 L 0 707.82 L 40 710.75 L 80 714.49 L 120 718.84 L 160 723.54 L 200 728.32 L 240 732.91 L 280 737.05 L 320 740.50 L 360 743.06 L 400 744.59 L 440 744.99 L 480 744.24 L 520 742.40 L 560 739.55 L 600 735.87 L 640 731.57 L 680 726.89 L 720 722.11 L 760 717.48 L 800 713.29 L 840 709.78 L 880 707.13 L 920 705.51 L 960 705.00 L 1000 705.64 L 1040 707.40 L 1080 710.16 L 1120 713.77 L 1160 718.02 L 1200 722.68 L 1240 727.47 L 1280 732.11 L 1320 736.35 L 1360 739.94 L 1400 742.67 L 1440 744.39 L 1480 745.00 L 1520 744.46 L 1560 742.81 L 1600 740.13 L 1640 736.59 L 1680 732.38 L 1720 727.75 L 1760 722.96"/>
    <path d="M -200 770 L -200 750.97 L -160 750.05 L -120 750.28 L -80 751.64 L -40 754.05 L 0 757.37 L 40 761.42 L 80 765.96 L 120 770.74 L 160 775.47 L 200 779.88 L 240 783.73 L 280 786.79 L 320 788.89 L 360 789.91 L 400 789.79 L 440 788.53 L 480 786.21 L 520 782.96 L 560 778.96 L 600 774.46 L 640 769.70 L 680 764.95 L 720 760.50 L 760 756.58 L 800 753.44 L 840 751.25 L 880 750.13 L 920 750.15 L 960 751.31 L 1000 753.54 L 1040 756.72 L 1080 760.65 L 1120 765.12 L 1160 769.87 L 1200 774.63 L 1240 779.12 L 1280 783.09 L 1320 786.31 L 1360 788.59 L 1400 789.81 L 1440 789.89 L 1480 788.84 L 1520 786.70 L 1560 783.60 L 1600 779.73 L 1640 775.30 L 1680 770.56 L 1720 765.79 L 1760 761.26"/>
    <path d="M -200 815 L -200 795.01 L -160 795.77 L -120 797.62 L -80 800.47 L -40 804.15 L 0 808.46 L 40 813.14 L 80 817.93 L 120 822.54 L 160 826.73 L 200 830.25 L 240 832.89 L 280 834.50 L 320 835.00 L 360 834.35 L 400 832.59 L 440 829.82 L 480 826.21 L 520 821.95 L 560 817.29 L 600 812.50 L 640 807.86 L 680 803.62 L 720 800.04 L 760 797.31 L 800 795.60 L 840 795.00 L 880 795.55 L 920 797.21 L 960 799.89 L 1000 803.44 L 1040 807.65 L 1080 812.28 L 1120 817.07 L 1160 821.74 L 1200 826.02 L 1240 829.67 L 1280 832.48 L 1320 834.29 L 1360 834.99 L 1400 834.55 L 1440 832.98 L 1480 830.39 L 1520 826.91 L 1560 822.75 L 1600 818.15 L 1640 813.36 L 1680 808.67 L 1720 804.34 L 1760 800.62"/>
  </g>
</svg>
